<?xml version="1.0" encoding="UTF-8"?><svg id="Layer_1" xmlns="http://www.w3.org/2000/svg" xmlns:xlink="http://www.w3.org/1999/xlink" viewBox="0 0 34.07 36"><defs><style>.cls-1{fill:url(#linear-gradient-2);}.cls-2{fill:#1b1e2e;}.cls-3{fill:#69d3a7;}.cls-4{fill:url(#linear-gradient);}</style><linearGradient id="linear-gradient" x1="494.95" y1="-220.75" x2="515.5" y2="-242.71" gradientTransform="translate(-313.79 -148.33) scale(.67 -.67)" gradientUnits="userSpaceOnUse"><stop offset=".09" stop-color="#58d09e"/><stop offset=".99" stop-color="#58d09e" stop-opacity="0"/></linearGradient><linearGradient id="linear-gradient-2" x1="470.4" y1="-261.78" x2="509.66" y2="-272.23" gradientTransform="translate(-313.79 -148.33) scale(.67 -.67)" gradientUnits="userSpaceOnUse"><stop offset=".08" stop-color="#58d09e"/><stop offset=".76" stop-color="#1b1e2e"/></linearGradient></defs><path class="cls-3" d="M.64,22.77c-.42-1.55-.64-3.15-.64-4.77C0,10.62,4.64,3.87,11.54,1.21l.9,2.34C6.5,5.84,2.51,11.65,2.51,18c0,1.39,.19,2.77,.55,4.1l-2.42,.66Z"/><path class="cls-4" d="M31.84,10.87c-2.69-5.16-7.97-8.36-13.79-8.36-2.06,0-4.07,.4-5.95,1.18l-.96-2.32c2.19-.91,4.52-1.37,6.92-1.37,6.76,0,12.9,3.72,16.02,9.71l-2.23,1.16Z"/><path class="cls-2" d="M12.66,14.29c1.46,0,2.64,.78,3.25,2.13l.05,.11,2.45-.83-.05-.13c-.95-2.31-3.13-3.74-5.7-3.74-1.8,0-3.27,.58-4.48,1.77-1.2,1.18-1.81,2.66-1.81,4.41s.61,3.21,1.81,4.39c1.21,1.19,2.68,1.77,4.48,1.77,2.57,0,4.75-1.43,5.7-3.74l.05-.13-2.45-.83-.05,.11c-.55,1.33-1.76,2.13-3.25,2.13-1.01,0-1.87-.35-2.55-1.05-.69-.71-1.03-1.6-1.03-2.64s.34-1.92,1.03-2.66c.68-.7,1.54-1.06,2.55-1.06Z"/><path class="cls-2" d="M27.98,12.06l-3.49,8.82-3.51-8.82h-2.87l4.92,12.04-3.5,8.49,2.51,.5L30.69,12.06h-2.71Z"/><path class="cls-1" d="M19.98,31.49l-.61,1.48c-.12,.29-.4,.49-.71,.5-.21,0-.41,.01-.63,.01-7.2,0-13.57-5.08-15.14-12.07l-2.45,.55c.89,3.92,3.11,7.48,6.26,10.03,3.19,2.57,7.2,3.99,11.31,4h.04c.24,0,.48,0,.72-.02,1.29-.05,2.44-.86,2.93-2.06l.8-1.94-2.51-.5Z"/></svg>