<?xml version="1.0" encoding="utf-8"?>
<!-- Generator: Adobe Illustrator 26.3.1, SVG Export Plug-In . SVG Version: 6.00 Build 0)  -->
<svg version="1.1" id="Layer_1" xmlns="http://www.w3.org/2000/svg" xmlns:xlink="http://www.w3.org/1999/xlink" x="0px" y="0px"
	 viewBox="0 0 48 48" style="enable-background:new 0 0 48 48;" xml:space="preserve">
<style type="text/css">
	.st0{fill:#009361;}
</style>
<g>
	<rect x="32.1" y="6" class="st0" width="5.9" height="5.9"/>
	<path class="st0" d="M22.5,6v9c0,0-2.2-1-5.7,0c-5.1,1.4-6.4,5.8-6.4,5.8s-1.8,6,1.3,9.8C16.2,36,28.4,33,28.4,33V6H22.5z
		 M22.7,29.2c0,0-6.7,1.5-6.7-4.5c0-6.7,6.7-4.9,6.7-4.9V29.2z"/>
	<path class="st0" d="M32.2,15.3v2.8v0c0,0.7,0,12.6-0.3,14.9c-0.3,2.3-1.4,3.3-2.1,4.2c-0.7,0.9-3.4,2.1-3.4,2.1l5.4,2.7
		c0,0,6.1-1.9,6.1-10V18.1v-2.8H32.2z"/>
</g>
</svg>
