<?xml version="1.0" encoding="utf-8"?>
<!-- Generator: Adobe Illustrator 26.3.1, SVG Export Plug-In . SVG Version: 6.00 Build 0)  -->
<svg version="1.1" id="Layer_1" xmlns="http://www.w3.org/2000/svg" xmlns:xlink="http://www.w3.org/1999/xlink" x="0px" y="0px"
	 viewBox="0 0 32 32" style="enable-background:new 0 0 32 32;" xml:space="preserve">
<style type="text/css">
	.st0{fill:#FFCEBF;}
	.st1{fill:#FF6196;}
	.st2{fill:#FF87AF;}
</style>
<path class="st0" d="M17.8,27.7c0-0.1,0.1-0.1,0.2-0.2c1-1.1,2-2.1,3-3.2c0.6-0.6,1-1.4,0.9-2.3c0-0.2-0.1-0.4-0.1-0.5
	c-0.3,0.3-0.5,0.5-0.8,0.7c-0.4,0.4-0.8,0.7-1.2,1.1c-0.5,0.5-1.2,0.6-1.8,0.4c-0.6-0.2-1.1-0.8-1.1-1.5c0,0,0-0.1,0-0.1
	c-0.3,0.3-0.6,0.5-0.9,0.7l-6,5.1c0,0-0.1,0.1-0.1,0.1h8l0,0C17.7,27.9,17.7,27.8,17.8,27.7z"/>
<path class="st0" d="M9.4,27.7c0.1-0.1,0.2-0.2,0.3-0.2l8.3-7c0.6-0.5,1.1-1,1.7-1.4c0.1,0,0.1-0.1,0.2-0.2c0.1-0.6,0.2-1.2,0.1-1.8
	c-0.1,0.1-0.1,0.1-0.2,0.1c-0.7,0.6-1.4,1.2-2,1.8c-0.5,0.5-1.2,0.6-1.8,0.3c-0.6-0.3-1-0.9-0.9-1.6c0-0.1,0-0.1,0-0.3
	c-0.1,0.1-0.2,0.2-0.3,0.2c-3.3,2.7-6.6,5.3-10,8c-0.1,0.1-0.3,0.4-0.5,0.1c-0.2-0.3,0.1-0.4,0.3-0.5c3.5-2.8,7.1-5.7,10.6-8.5
	c0.6-0.5,0.6-0.7,0.2-1.4l-0.2,0.2c-0.6,0.6-1.2,1.1-1.8,1.7c-0.7,0.7-1.9,0.7-2.6,0c-0.3-0.3-0.5-0.7-0.5-1.1
	c-0.1,0.1-0.2,0.1-0.3,0.2l-5.2,4.1c-0.1,0.1-0.2,0.2-0.3,0.2c-0.1,0-0.2,0-0.3,0V28h5.4C9.4,27.9,9.4,27.8,9.4,27.7z"/>
<path class="st1" d="M24,4.3c-0.1,0.5-0.3,1-0.4,1.4c-0.2,0.7,0.1,1.5,0.8,1.8c1,0.5,2.1,0.8,3.3,0.7V4.4c0-0.1,0-0.2,0-0.3
	c0,0,0.1-0.1,0.1-0.1h-3.8C24,4.1,24,4.2,24,4.3z"/>
<g>
	<path class="st2" d="M16.4,12.6c0,0.4-0.2,0.8-0.4,1.2C15,15,14,16.1,12.8,17c-0.4,0.4-1,0.4-1.4,0.2c-0.5-0.2-0.8-0.7-0.7-1.2
		c0-0.3,0.2-0.6,0.4-0.8c1.3-1.3,2.8-2.4,4.3-3.4c0.2-0.2,0.5-0.2,0.7,0C16.3,11.9,16.4,12.2,16.4,12.6z"/>
	<path class="st2" d="M15.4,17.8c0-0.4,0.1-0.8,0.4-1c1.3-1.2,2.7-2.3,4.2-3.3c0,0,0.1-0.1,0.1-0.1c0.3-0.2,0.6-0.2,0.9,0
		c0.2,0.2,0.3,0.5,0.2,0.8c-0.2,0.6-0.5,1.2-1,1.6c-1,0.9-1.9,1.9-2.9,2.8c-0.3,0.3-0.8,0.4-1.2,0.2C15.7,18.6,15.4,18.2,15.4,17.8z
		"/>
	<path class="st2" d="M21.6,18.4c-0.2,0.3-0.5,0.5-0.7,0.8c-0.1,0.1-0.1,0.2-0.2,0.3c0.1,0,0.3,0.1,0.4,0.1c0.5-0.2,1-0.4,1.6-0.6
		c-0.1,0.3-0.2,0.6-0.4,0.8c-0.5,0.9-1.2,1.8-2,2.5c-0.3,0.3-0.6,0.6-1,0.8c-0.5,0.5-1.3,0.4-1.8-0.2c-0.1-0.2-0.2-0.4-0.3-0.6
		c0-0.3,0-0.5,0.2-0.7c1.2-1.3,2.5-2.4,4-3.3C21.5,18.3,21.5,18.3,21.6,18.4L21.6,18.4z"/>
</g>
<path class="st1" d="M23.6,14.9L25,8.4l1,0.2l-0.5,1.6c-0.5,1.5-1,3-1.5,4.5C24,15.1,23.8,15.1,23.6,14.9z"/>
<path class="st1" d="M21.9,18.8c0.2-0.6,0.3-1.1,0.4-1.7c0.1-0.5,0.4-1,0.7-1.5c0.2-0.3,0.4-0.2,0.7-0.1c0.2,0.1,0.3,0.2,0.3,0.4
	c0,0.6-0.1,1.2-0.5,1.6C23.1,18.1,22.5,18.5,21.9,18.8z"/>
<path d="M28,4.7c0-0.2,0-0.4,0-0.6C28,4.1,28,4,27.9,4c0,0-0.1-0.1-0.1-0.1c0,0-0.1,0-0.1,0.1c0,0-0.1,0.1-0.1,0.1
	c0,0.1,0,0.2,0,0.3v3.8c-1.1,0.1-2.3-0.2-3.3-0.7c-0.7-0.3-1-1.1-0.8-1.8c0.1-0.5,0.3-1,0.4-1.4c0-0.1,0.1-0.2,0-0.3
	c0,0-0.1-0.1-0.1-0.1c-0.1,0-0.1,0-0.2,0.1c-0.1,0-0.1,0.1-0.1,0.2c-0.2,0.5-0.3,1-0.5,1.6c0,0.2-0.1,0.4,0,0.6
	c0.1,0.8,0.6,1.5,1.3,1.7c0.2,0.1,0.3,0.1,0.2,0.3c-0.1,0.3-0.1,0.5-0.2,0.8c-0.4,1.8-0.8,3.7-1.3,5.5c0,0.1,0,0.2-0.1,0.2
	c-0.3,0.2-0.5,0.5-0.7,0.8c-0.2,0.4-0.4,0.8-0.5,1.3c0,0.3-0.2,0.5-0.5,0.7c-0.4,0.2-0.7,0.4-1.1,0.7c0-0.5,0-1,0-1.4
	c-0.1-0.3,0-0.6,0.2-0.8c0.5-0.5,0.9-1.2,1.1-1.9c0.2-0.6-0.1-1.2-0.7-1.4c-0.1,0-0.2-0.1-0.3-0.1c-0.3,0-0.6,0.1-0.8,0.2
	c-0.8,0.6-1.6,1.1-2.4,1.7c-0.5,0.4-0.9,0.7-1.4,1.1c0,0,0,0-0.1-0.1c0-0.1,0-0.1-0.1-0.2c-0.4-0.6-0.1-1,0.3-1.5
	c0.4-0.5,0.7-1.1,0.7-1.7c0-0.3-0.1-0.6-0.3-0.9c-0.1-0.1-0.2-0.2-0.4-0.3c-0.4-0.2-0.9-0.2-1.3,0.1l-0.2,0.2
	c-0.5,0.4-1.1,0.8-1.6,1.2c-0.8,0.6-1.5,1.3-2.3,1.9c-0.3,0.3-0.6,0.7-1,1c-1.9,1.5-3.7,2.9-5.6,4.4c-0.1,0-0.1,0.1-0.2,0.1
	c0,0,0,0,0,0c0,0.1-0.1,0.2,0,0.3c0,0,0,0,0,0c0.1,0,0.2,0,0.3,0c0.1-0.1,0.2-0.1,0.3-0.2l5.2-4.1c0.1-0.1,0.2-0.1,0.3-0.2
	c0.1,1,1,1.7,2,1.7c0.4,0,0.8-0.2,1.1-0.5c0.6-0.6,1.2-1.1,1.8-1.7l0.2-0.2c0.4,0.7,0.3,0.9-0.2,1.4c-3.5,2.8-7.1,5.7-10.6,8.5
	c-0.2,0.1-0.4,0.2-0.3,0.5c0.2,0.3,0.4,0,0.5-0.1c3.3-2.7,6.6-5.3,10-8c0.1-0.1,0.2-0.1,0.3-0.2v0.3c0,0.7,0.3,1.3,0.9,1.6
	c0.6,0.3,1.3,0.2,1.8-0.3c0.7-0.6,1.4-1.2,2-1.8c0,0,0.1-0.1,0.2-0.1c0.1,0.6,0.1,1.2-0.1,1.8c0,0.1-0.1,0.1-0.2,0.2
	c-0.6,0.5-1.1,1-1.7,1.4l-8.3,7c-0.1,0.1-0.2,0.1-0.3,0.2c0,0.1,0,0.2,0,0.3C9.5,28,9.6,28.1,9.7,28c0,0,0.1,0,0.1-0.1
	c0,0,0.1-0.1,0.1-0.1l6-5.1c0.3-0.2,0.6-0.5,0.9-0.7c0,0,0,0.1,0,0.1c0,0.7,0.5,1.3,1.1,1.5c0.6,0.3,1.4,0.1,1.8-0.4
	c0.4-0.4,0.8-0.7,1.2-1.1c0.3-0.2,0.5-0.5,0.8-0.7c0.1,0.2,0.1,0.4,0.1,0.5c0.1,0.9-0.2,1.7-0.9,2.3c-1,1.1-2,2.1-3,3.2
	c-0.1,0.1-0.2,0.1-0.2,0.2c0,0.1-0.1,0.2,0,0.3l0,0c0.1,0,0.2,0.1,0.3,0c0,0,0.1,0,0.1,0c0,0,0-0.1,0.1-0.1c0.8-0.8,1.6-1.7,2.5-2.5
	c0.3-0.3,0.6-0.7,0.9-1.1c0.8-0.8,1-2.1,0.5-3.1c0-0.1,0-0.2,0.1-0.3c0.1-0.1,0.1-0.2,0.2-0.3c0.2-0.3,0.4-0.6,0.5-0.9
	c0.3-0.8,0.6-1.5,1.2-2.1c0.5-0.6,0.6-1.4,0.4-2.1c0-0.1,0-0.3,0-0.4c0.4-1.3,0.9-2.7,1.3-4c0.2-0.6,0.4-1.2,0.6-1.8l0.2-0.6
	c0.4,0,0.8,0,1.1,0c0.3,0,0.4-0.1,0.4-0.4C28,7.1,28,5.9,28,4.7z M12.8,17c-0.4,0.4-1,0.4-1.4,0.2c-0.5-0.2-0.8-0.7-0.7-1.2
	c0-0.3,0.2-0.6,0.4-0.8c1.3-1.3,2.8-2.4,4.3-3.4c0.1-0.1,0.2-0.1,0.3-0.1c0.1,0,0.1,0,0.2,0c0.1,0,0.2,0,0.2,0.1
	c0.3,0.2,0.4,0.5,0.4,0.8c0,0.4-0.2,0.8-0.4,1.2C15,15,14,16.1,12.8,17z M17.3,18.7c-0.3,0.3-0.8,0.4-1.2,0.2
	c-0.4-0.2-0.7-0.6-0.7-1.1c0-0.4,0.1-0.8,0.4-1c1.3-1.2,2.7-2.3,4.2-3.3c0,0,0.1-0.1,0.1-0.1c0.3-0.2,0.6-0.2,0.9,0
	c0.2,0.2,0.3,0.5,0.2,0.8c-0.2,0.6-0.5,1.2-1,1.6C19.2,16.9,18.2,17.8,17.3,18.7L17.3,18.7z M22.3,19.8c-0.5,0.9-1.2,1.8-2,2.5
	c-0.3,0.3-0.6,0.6-1,0.8c-0.5,0.5-1.3,0.4-1.8-0.2c-0.1-0.2-0.2-0.4-0.3-0.6c0-0.3,0-0.5,0.2-0.7c1.2-1.3,2.5-2.4,4-3.3
	c0,0,0,0,0.1,0l0.1,0.1c-0.2,0.3-0.5,0.5-0.7,0.8c-0.1,0.1-0.1,0.2-0.2,0.3c0.1,0,0.3,0.1,0.4,0.1c0.4-0.1,0.8-0.3,1.3-0.5l0.4-0.1
	C22.6,19.2,22.5,19.5,22.3,19.8L22.3,19.8z M23.5,17.6c-0.3,0.4-0.7,0.7-1.2,1c-0.1,0.1-0.3,0.2-0.4,0.2c0.2-0.6,0.3-1.1,0.4-1.7
	l0,0c0.1-0.5,0.4-1,0.7-1.5c0.2-0.3,0.4-0.2,0.7-0.1c0.2,0.1,0.3,0.2,0.3,0.4C24.1,16.5,23.9,17.1,23.5,17.6L23.5,17.6z M25.5,10.3
	c-0.5,1.5-1,3-1.5,4.5c-0.1,0.3-0.2,0.3-0.5,0.2l1.3-5.7L25,8.4l1,0.2c-0.1,0.2-0.1,0.4-0.2,0.6L25.5,10.3z"/>
</svg>
